{
    "asset" : {
        "generator" : "Khronos glTF Blender I/O v1.1.46",
        "version" : "2.0"
    },
    "scene" : 0,
    "scenes" : [
        {
            "extras" : {
                "janus_apply_scale" : 0,
                "janus_apply_pos" : 0,
                "janus_apply_rot" : 0,
                "janus_ipfs" : 0,
                "janus_gateway" : 0,
                "janus_ipns" : 0,
                "janus_room_visible" : 0,
                "janus_room_shader_active" : 0,
                "janus_unpack" : 1
            },
            "name" : "Scene",
            "nodes" : [
                0
            ]
        }
    ],
    "nodes" : [
        {
            "mesh" : 0,
            "name" : "brick_wall"
        }
    ],
    "materials" : [
        {
            "doubleSided" : true,
            "emissiveFactor" : [
                0,
                0,
                0
            ],
            "name" : "Bricks",
            "normalTexture" : {
                "index" : 0,
                "scale" : 1.3000000715255737,
                "texCoord" : 0
            },
            "pbrMetallicRoughness" : {
                "baseColorTexture" : {
                    "index" : 1,
                    "texCoord" : 0
                },
                "metallicFactor" : 0,
                "metallicRoughnessTexture" : {
                    "index" : 2,
                    "texCoord" : 0
                }
            }
        },
        {
            "doubleSided" : true,
            "emissiveFactor" : [
                0,
                0,
                0
            ],
            "name" : "Clean Concrete",
            "normalTexture" : {
                "index" : 3,
                "scale" : 1.1999999284744263,
                "texCoord" : 0
            },
            "pbrMetallicRoughness" : {
                "baseColorTexture" : {
                    "index" : 4,
                    "texCoord" : 0
                },
                "metallicFactor" : 0,
                "metallicRoughnessTexture" : {
                    "index" : 5,
                    "texCoord" : 0
                }
            }
        },
        {
            "doubleSided" : true,
            "emissiveFactor" : [
                0,
                0,
                0
            ],
            "name" : "Dirt",
            "pbrMetallicRoughness" : {
                "baseColorTexture" : {
                    "index" : 6,
                    "texCoord" : 0
                },
                "metallicFactor" : 0,
                "roughnessFactor" : 0.9772727489471436
            }
        }
    ],
    "meshes" : [
        {
            "name" : "Cube.004",
            "primitives" : [
                {
                    "attributes" : {
                        "POSITION" : 0,
                        "NORMAL" : 1,
                        "TEXCOORD_0" : 2
                    },
                    "indices" : 3,
                    "material" : 0
                },
                {
                    "attributes" : {
                        "POSITION" : 4,
                        "NORMAL" : 5,
                        "TEXCOORD_0" : 6
                    },
                    "indices" : 7,
                    "material" : 1
                },
                {
                    "attributes" : {
                        "POSITION" : 8,
                        "NORMAL" : 9,
                        "TEXCOORD_0" : 10
                    },
                    "indices" : 11,
                    "material" : 2
                }
            ]
        }
    ],
    "textures" : [
        {
            "source" : 0
        },
        {
            "source" : 1
        },
        {
            "source" : 2
        },
        {
            "source" : 3
        },
        {
            "source" : 4
        },
        {
            "source" : 5
        },
        {
            "source" : 6
        }
    ],
    "images" : [
        {
            "mimeType" : "image/png",
            "name" : "Brick Texture NormalMap",
            "uri" : "Brick%20Texture%20NormalMap.png"
        },
        {
            "mimeType" : "image/jpeg",
            "name" : "Brick Texture",
            "uri" : "Brick%20Texture.jpg"
        },
        {
            "mimeType" : "image/png",
            "name" : "Brick Texture SpecMap",
            "uri" : "Brick%20Texture%20SpecMap.png"
        },
        {
            "mimeType" : "image/png",
            "name" : "Clean Concrete NormalMap",
            "uri" : "Clean%20Concrete%20NormalMap.png"
        },
        {
            "mimeType" : "image/jpeg",
            "name" : "Clean Concrete Seamless",
            "uri" : "Clean%20Concrete%20Seamless.jpg"
        },
        {
            "mimeType" : "image/png",
            "name" : "Clean Concrete SpecMap",
            "uri" : "Clean%20Concrete%20SpecMap.png"
        },
        {
            "mimeType" : "image/jpeg",
            "name" : "Ground",
            "uri" : "Ground.jpg"
        }
    ],
    "accessors" : [
        {
            "bufferView" : 0,
            "componentType" : 5126,
            "count" : 1250,
            "max" : [
                9.983030319213867,
                4.031720161437988,
                -3.319549083709717
            ],
            "min" : [
                -6.8403825759887695,
                -0.12141561508178711,
                -4.535725116729736
            ],
            "type" : "VEC3"
        },
        {
            "bufferView" : 1,
            "componentType" : 5126,
            "count" : 1250,
            "type" : "VEC3"
        },
        {
            "bufferView" : 2,
            "componentType" : 5126,
            "count" : 1250,
            "type" : "VEC2"
        },
        {
            "bufferView" : 3,
            "componentType" : 5123,
            "count" : 1890,
            "type" : "SCALAR"
        },
        {
            "bufferView" : 4,
            "componentType" : 5126,
            "count" : 568,
            "max" : [
                10.064460754394531,
                4.173874855041504,
                -3.845930337905884
            ],
            "min" : [
                -6.92181396484375,
                4.029155254364014,
                -4.6120195388793945
            ],
            "type" : "VEC3"
        },
        {
            "bufferView" : 5,
            "componentType" : 5126,
            "count" : 568,
            "type" : "VEC3"
        },
        {
            "bufferView" : 6,
            "componentType" : 5126,
            "count" : 568,
            "type" : "VEC2"
        },
        {
            "bufferView" : 7,
            "componentType" : 5123,
            "count" : 876,
            "type" : "SCALAR"
        },
        {
            "bufferView" : 8,
            "componentType" : 5126,
            "count" : 68,
            "max" : [
                9.874716758728027,
                1.78944993019104,
                -3.383402109146118
            ],
            "min" : [
                -6.732069492340088,
                1.7857604026794434,
                -3.861980438232422
            ],
            "type" : "VEC3"
        },
        {
            "bufferView" : 9,
            "componentType" : 5126,
            "count" : 68,
            "type" : "VEC3"
        },
        {
            "bufferView" : 10,
            "componentType" : 5126,
            "count" : 68,
            "type" : "VEC2"
        },
        {
            "bufferView" : 11,
            "componentType" : 5123,
            "count" : 102,
            "type" : "SCALAR"
        }
    ],
    "bufferViews" : [
        {
            "buffer" : 0,
            "byteLength" : 15000,
            "byteOffset" : 0
        },
        {
            "buffer" : 0,
            "byteLength" : 15000,
            "byteOffset" : 15000
        },
        {
            "buffer" : 0,
            "byteLength" : 10000,
            "byteOffset" : 30000
        },
        {
            "buffer" : 0,
            "byteLength" : 3780,
            "byteOffset" : 40000
        },
        {
            "buffer" : 0,
            "byteLength" : 6816,
            "byteOffset" : 43780
        },
        {
            "buffer" : 0,
            "byteLength" : 6816,
            "byteOffset" : 50596
        },
        {
            "buffer" : 0,
            "byteLength" : 4544,
            "byteOffset" : 57412
        },
        {
            "buffer" : 0,
            "byteLength" : 1752,
            "byteOffset" : 61956
        },
        {
            "buffer" : 0,
            "byteLength" : 816,
            "byteOffset" : 63708
        },
        {
            "buffer" : 0,
            "byteLength" : 816,
            "byteOffset" : 64524
        },
        {
            "buffer" : 0,
            "byteLength" : 544,
            "byteOffset" : 65340
        },
        {
            "buffer" : 0,
            "byteLength" : 204,
            "byteOffset" : 65884
        }
    ],
    "buffers" : [
        {
            "byteLength" : 66088,
            "uri" : "brick_wall.bin"
        }
    ]
}
