{
    "asset" : {
        "generator" : "Khronos glTF Blender I/O v1.1.46",
        "version" : "2.0"
    },
    "extensionsUsed" : [
        "KHR_lights_punctual"
    ],
    "extensionsRequired" : [
        "KHR_lights_punctual"
    ],
    "extensions" : {
        "KHR_lights_punctual" : {
            "lights" : [
                {
                    "color" : [
                        1,
                        0.8977665901184082,
                        0.4571043848991394
                    ],
                    "intensity" : 10,
                    "type" : "point",
                    "name" : "Point.006"
                },
                {
                    "color" : [
                        1,
                        0.8977665901184082,
                        0.4571043848991394
                    ],
                    "intensity" : 10,
                    "type" : "point",
                    "name" : "Point.007"
                }
            ]
        }
    },
    "scene" : 0,
    "scenes" : [
        {
            "extras" : {
                "janus_apply_scale" : 0,
                "janus_apply_pos" : 0,
                "janus_apply_rot" : 0,
                "janus_ipfs" : 0,
                "janus_gateway" : 0,
                "janus_ipns" : 0,
                "janus_room_visible" : 0,
                "janus_room_shader_active" : 0,
                "janus_unpack" : 1
            },
            "name" : "Scene",
            "nodes" : [
                5,
                11
            ]
        }
    ],
    "nodes" : [
        {
            "mesh" : 0,
            "name" : "Circle.006",
            "scale" : [
                0.3890882432460785,
                0.3890882432460785,
                0.3890882432460785
            ]
        },
        {
            "mesh" : 1,
            "name" : "Cylinder",
            "scale" : [
                0.32682764530181885,
                0.21308819949626923,
                0.32682764530181885
            ],
            "translation" : [
                -0.020462989807128906,
                2.4438648223876953,
                0
            ]
        },
        {
            "mesh" : 2,
            "name" : "Cylinder.001",
            "rotation" : [
                0.5000000596046448,
                0.5,
                -0.5,
                0.5000000596046448
            ],
            "scale" : [
                0.025622868910431862,
                0.3076162338256836,
                0.025622868910431862
            ],
            "translation" : [
                -0.020462989807128906,
                2.5453219413757324,
                0
            ]
        },
        {
            "extensions" : {
                "KHR_lights_punctual" : {
                    "light" : 0
                }
            },
            "name" : "Point.006_Orientation",
            "rotation" : [
                -0.7071067690849304,
                0,
                0,
                0.7071067690849304
            ]
        },
        {
            "children" : [
                3
            ],
            "name" : "Point.006",
            "scale" : [
                1.8443398475646973,
                1.8443398475646973,
                1.8443398475646973
            ],
            "translation" : [
                -0.020462989807128906,
                2.4813008308410645,
                0
            ]
        },
        {
            "children" : [
                0,
                1,
                2,
                4
            ],
            "name" : "Empty.002",
            "scale" : [
                0.542199432849884,
                0.542199432849884,
                0.542199432849884
            ],
            "translation" : [
                -0.32304883003234863,
                0,
                -1.8177855014801025
            ]
        },
        {
            "mesh" : 3,
            "name" : "Circle.007",
            "scale" : [
                0.3890882432460785,
                0.3890882432460785,
                0.3890882432460785
            ]
        },
        {
            "mesh" : 4,
            "name" : "Cylinder.002",
            "scale" : [
                0.32682764530181885,
                0.21308819949626923,
                0.32682764530181885
            ],
            "translation" : [
                -0.02046346664428711,
                2.4438648223876953,
                0
            ]
        },
        {
            "mesh" : 5,
            "name" : "Cylinder.003",
            "rotation" : [
                0.5000000596046448,
                0.5,
                -0.5,
                0.5000000596046448
            ],
            "scale" : [
                0.025622868910431862,
                0.3076162338256836,
                0.025622868910431862
            ],
            "translation" : [
                -0.02046346664428711,
                2.545321464538574,
                0
            ]
        },
        {
            "extensions" : {
                "KHR_lights_punctual" : {
                    "light" : 1
                }
            },
            "name" : "Point.007_Orientation",
            "rotation" : [
                -0.7071067690849304,
                0,
                0,
                0.7071067690849304
            ]
        },
        {
            "children" : [
                9
            ],
            "name" : "Point.007",
            "scale" : [
                1.8443398475646973,
                1.8443398475646973,
                1.8443398475646973
            ],
            "translation" : [
                -0.02046346664428711,
                2.4813003540039062,
                0
            ]
        },
        {
            "children" : [
                6,
                7,
                8,
                10
            ],
            "name" : "Empty.003",
            "scale" : [
                0.542199432849884,
                0.542199432849884,
                0.542199432849884
            ],
            "translation" : [
                3.928633213043213,
                3.0397286415100098,
                -1.7065131664276123
            ]
        }
    ],
    "materials" : [
        {
            "doubleSided" : true,
            "emissiveFactor" : [
                0,
                0,
                0
            ],
            "name" : "Glossy Black",
            "pbrMetallicRoughness" : {
                "baseColorFactor" : [
                    0,
                    0,
                    0,
                    1
                ],
                "metallicFactor" : 0.6090909242630005,
                "roughnessFactor" : 0.27272725105285645
            }
        },
        {
            "doubleSided" : true,
            "emissiveFactor" : [
                0,
                0,
                0
            ],
            "name" : "Material.002",
            "pbrMetallicRoughness" : {
                "baseColorFactor" : [
                    0.428690642118454,
                    0.428690642118454,
                    0.428690642118454,
                    1
                ],
                "metallicFactor" : 0,
                "roughnessFactor" : 0.5
            }
        }
    ],
    "meshes" : [
        {
            "name" : "Circle.006",
            "primitives" : [
                {
                    "attributes" : {
                        "POSITION" : 0,
                        "NORMAL" : 1
                    },
                    "indices" : 2,
                    "material" : 0
                }
            ]
        },
        {
            "name" : "Cylinder.002",
            "primitives" : [
                {
                    "attributes" : {
                        "POSITION" : 3,
                        "NORMAL" : 4
                    },
                    "indices" : 5,
                    "material" : 1
                }
            ]
        },
        {
            "name" : "Cylinder.001",
            "primitives" : [
                {
                    "attributes" : {
                        "POSITION" : 6,
                        "NORMAL" : 7
                    },
                    "indices" : 8
                }
            ]
        },
        {
            "name" : "Circle.007",
            "primitives" : [
                {
                    "attributes" : {
                        "POSITION" : 9,
                        "NORMAL" : 10
                    },
                    "indices" : 2,
                    "material" : 0
                }
            ]
        },
        {
            "name" : "Cylinder.003",
            "primitives" : [
                {
                    "attributes" : {
                        "POSITION" : 11,
                        "NORMAL" : 12
                    },
                    "indices" : 5,
                    "material" : 1
                }
            ]
        },
        {
            "name" : "Cylinder.004",
            "primitives" : [
                {
                    "attributes" : {
                        "POSITION" : 13,
                        "NORMAL" : 14
                    },
                    "indices" : 8
                }
            ]
        }
    ],
    "accessors" : [
        {
            "bufferView" : 0,
            "componentType" : 5126,
            "count" : 1600,
            "max" : [
                0.9935951828956604,
                6.272813320159912,
                0.9935951828956604
            ],
            "min" : [
                -0.9935952425003052,
                0,
                -0.9935952425003052
            ],
            "type" : "VEC3"
        },
        {
            "bufferView" : 1,
            "componentType" : 5126,
            "count" : 1600,
            "type" : "VEC3"
        },
        {
            "bufferView" : 2,
            "componentType" : 5123,
            "count" : 9216,
            "type" : "SCALAR"
        },
        {
            "bufferView" : 3,
            "componentType" : 5126,
            "count" : 512,
            "max" : [
                1,
                1,
                1
            ],
            "min" : [
                -1,
                -1,
                -1
            ],
            "type" : "VEC3"
        },
        {
            "bufferView" : 4,
            "componentType" : 5126,
            "count" : 512,
            "type" : "VEC3"
        },
        {
            "bufferView" : 5,
            "componentType" : 5123,
            "count" : 1920,
            "type" : "SCALAR"
        },
        {
            "bufferView" : 6,
            "componentType" : 5126,
            "count" : 64,
            "max" : [
                1,
                1.0220208168029785,
                1
            ],
            "min" : [
                -1,
                -1.0291900634765625,
                -1
            ],
            "type" : "VEC3"
        },
        {
            "bufferView" : 7,
            "componentType" : 5126,
            "count" : 64,
            "type" : "VEC3"
        },
        {
            "bufferView" : 8,
            "componentType" : 5123,
            "count" : 192,
            "type" : "SCALAR"
        },
        {
            "bufferView" : 9,
            "componentType" : 5126,
            "count" : 1600,
            "max" : [
                0.9935951828956604,
                6.272813320159912,
                0.9935951828956604
            ],
            "min" : [
                -0.9935952425003052,
                0,
                -0.9935952425003052
            ],
            "type" : "VEC3"
        },
        {
            "bufferView" : 10,
            "componentType" : 5126,
            "count" : 1600,
            "type" : "VEC3"
        },
        {
            "bufferView" : 11,
            "componentType" : 5126,
            "count" : 512,
            "max" : [
                1,
                1,
                1
            ],
            "min" : [
                -1,
                -1,
                -1
            ],
            "type" : "VEC3"
        },
        {
            "bufferView" : 12,
            "componentType" : 5126,
            "count" : 512,
            "type" : "VEC3"
        },
        {
            "bufferView" : 13,
            "componentType" : 5126,
            "count" : 64,
            "max" : [
                1,
                1.0220208168029785,
                1
            ],
            "min" : [
                -1,
                -1.0291900634765625,
                -1
            ],
            "type" : "VEC3"
        },
        {
            "bufferView" : 14,
            "componentType" : 5126,
            "count" : 64,
            "type" : "VEC3"
        }
    ],
    "bufferViews" : [
        {
            "buffer" : 0,
            "byteLength" : 19200,
            "byteOffset" : 0
        },
        {
            "buffer" : 0,
            "byteLength" : 19200,
            "byteOffset" : 19200
        },
        {
            "buffer" : 0,
            "byteLength" : 18432,
            "byteOffset" : 38400
        },
        {
            "buffer" : 0,
            "byteLength" : 6144,
            "byteOffset" : 56832
        },
        {
            "buffer" : 0,
            "byteLength" : 6144,
            "byteOffset" : 62976
        },
        {
            "buffer" : 0,
            "byteLength" : 3840,
            "byteOffset" : 69120
        },
        {
            "buffer" : 0,
            "byteLength" : 768,
            "byteOffset" : 72960
        },
        {
            "buffer" : 0,
            "byteLength" : 768,
            "byteOffset" : 73728
        },
        {
            "buffer" : 0,
            "byteLength" : 384,
            "byteOffset" : 74496
        },
        {
            "buffer" : 0,
            "byteLength" : 19200,
            "byteOffset" : 74880
        },
        {
            "buffer" : 0,
            "byteLength" : 19200,
            "byteOffset" : 94080
        },
        {
            "buffer" : 0,
            "byteLength" : 6144,
            "byteOffset" : 113280
        },
        {
            "buffer" : 0,
            "byteLength" : 6144,
            "byteOffset" : 119424
        },
        {
            "buffer" : 0,
            "byteLength" : 768,
            "byteOffset" : 125568
        },
        {
            "buffer" : 0,
            "byteLength" : 768,
            "byteOffset" : 126336
        }
    ],
    "buffers" : [
        {
            "byteLength" : 127104,
            "uri" : "lamps2.bin"
        }
    ]
}
