{
    "asset" : {
        "generator" : "Khronos glTF Blender I/O v1.1.46",
        "version" : "2.0"
    },
    "scene" : 0,
    "scenes" : [
        {
            "extras" : {
                "janus_apply_scale" : 0,
                "janus_apply_pos" : 0,
                "janus_apply_rot" : 0,
                "janus_ipfs" : 0,
                "janus_gateway" : 0,
                "janus_ipns" : 0,
                "janus_room_visible" : 0,
                "janus_room_shader_active" : 0,
                "janus_unpack" : 1
            },
            "name" : "Scene",
            "nodes" : [
                0,
                1,
                2,
                3
            ]
        }
    ],
    "nodes" : [
        {
            "mesh" : 0,
            "name" : "Cylinder.005",
            "scale" : [
                0.5013542771339417,
                0.5013542771339417,
                0.5013542771339417
            ],
            "translation" : [
                6.186523914337158,
                0.4933094084262848,
                9.316289901733398
            ]
        },
        {
            "mesh" : 1,
            "name" : "vines",
            "rotation" : [
                0,
                -0.7071067094802856,
                0.7071068286895752,
                5.338507236274381e-08
            ],
            "scale" : [
                0.10502108186483383,
                0.10502108186483383,
                0.10502108186483383
            ],
            "translation" : [
                6.652586460113525,
                0.5212252736091614,
                8.841188430786133
            ]
        },
        {
            "extras" : {},
            "mesh" : 2,
            "name" : "Cube",
            "rotation" : [
                0,
                -0.6119941473007202,
                0,
                0.7908622622489929
            ],
            "scale" : [
                0.1296839565038681,
                0.20323674380779266,
                0.1296839565038681
            ],
            "translation" : [
                6.422412872314453,
                1.1947212219238281,
                9.281515121459961
            ]
        },
        {
            "extras" : {},
            "mesh" : 3,
            "name" : "Cube.001",
            "rotation" : [
                0.4078771770000458,
                -0.5776125192642212,
                0.5776125192642212,
                0.4078771770000458
            ],
            "scale" : [
                0.1296839416027069,
                0.20323678851127625,
                0.1296839565038681
            ],
            "translation" : [
                6.021510124206543,
                1.1216039657592773,
                9.300342559814453
            ]
        }
    ],
    "materials" : [
        {
            "doubleSided" : true,
            "emissiveFactor" : [
                0,
                0,
                0
            ],
            "name" : "Marble",
            "normalTexture" : {
                "index" : 0,
                "scale" : 1.100000023841858,
                "texCoord" : 0
            },
            "pbrMetallicRoughness" : {
                "baseColorTexture" : {
                    "index" : 1,
                    "texCoord" : 0
                },
                "metallicRoughnessTexture" : {
                    "index" : 2,
                    "texCoord" : 0
                }
            }
        },
        {
            "doubleSided" : true,
            "emissiveFactor" : [
                0,
                0,
                0
            ],
            "name" : "wood_seamless2",
            "pbrMetallicRoughness" : {
                "baseColorTexture" : {
                    "index" : 3,
                    "texCoord" : 0
                },
                "metallicFactor" : 0,
                "roughnessFactor" : 1
            }
        },
        {
            "doubleSided" : true,
            "emissiveFactor" : [
                0,
                0,
                0
            ],
            "name" : "Speaker",
            "pbrMetallicRoughness" : {
                "baseColorFactor" : [
                    0.800000011920929,
                    0.800000011920929,
                    0.800000011920929,
                    1
                ],
                "metallicFactor" : 0,
                "roughnessFactor" : 0.5
            }
        },
        {
            "doubleSided" : true,
            "emissiveFactor" : [
                0,
                0,
                0
            ],
            "name" : "Plastic",
            "pbrMetallicRoughness" : {
                "baseColorFactor" : [
                    0,
                    0,
                    0,
                    1
                ],
                "metallicFactor" : 0,
                "roughnessFactor" : 0.5
            }
        },
        {
            "doubleSided" : true,
            "emissiveFactor" : [
                0,
                0,
                0
            ],
            "name" : "Speaker 2",
            "pbrMetallicRoughness" : {
                "baseColorFactor" : [
                    0.5864068269729614,
                    0.5864068269729614,
                    0.5864068269729614,
                    1
                ],
                "metallicFactor" : 0,
                "roughnessFactor" : 0.5
            }
        }
    ],
    "meshes" : [
        {
            "name" : "Cylinder.005",
            "primitives" : [
                {
                    "attributes" : {
                        "POSITION" : 0,
                        "NORMAL" : 1,
                        "TEXCOORD_0" : 2
                    },
                    "indices" : 3,
                    "material" : 0
                }
            ]
        },
        {
            "name" : "Untitled2",
            "primitives" : [
                {
                    "attributes" : {
                        "POSITION" : 4,
                        "NORMAL" : 5,
                        "TEXCOORD_0" : 6
                    },
                    "indices" : 7,
                    "material" : 1
                }
            ]
        },
        {
            "name" : "Cube.006",
            "primitives" : [
                {
                    "attributes" : {
                        "POSITION" : 8,
                        "NORMAL" : 9,
                        "TEXCOORD_0" : 10
                    },
                    "indices" : 11,
                    "material" : 2
                },
                {
                    "attributes" : {
                        "POSITION" : 12,
                        "NORMAL" : 13,
                        "TEXCOORD_0" : 14
                    },
                    "indices" : 15,
                    "material" : 3
                },
                {
                    "attributes" : {
                        "POSITION" : 16,
                        "NORMAL" : 17,
                        "TEXCOORD_0" : 18
                    },
                    "indices" : 19,
                    "material" : 4
                }
            ]
        },
        {
            "name" : "Cube.005",
            "primitives" : [
                {
                    "attributes" : {
                        "POSITION" : 20,
                        "NORMAL" : 21,
                        "TEXCOORD_0" : 22
                    },
                    "indices" : 23,
                    "material" : 2
                },
                {
                    "attributes" : {
                        "POSITION" : 24,
                        "NORMAL" : 25,
                        "TEXCOORD_0" : 26
                    },
                    "indices" : 27,
                    "material" : 4
                },
                {
                    "attributes" : {
                        "POSITION" : 28,
                        "NORMAL" : 29,
                        "TEXCOORD_0" : 30
                    },
                    "indices" : 15,
                    "material" : 3
                }
            ]
        }
    ],
    "textures" : [
        {
            "source" : 0
        },
        {
            "source" : 1
        },
        {
            "source" : 2
        },
        {
            "source" : 3
        }
    ],
    "images" : [
        {
            "mimeType" : "image/png",
            "name" : "Marble_SlabWhite_512_normal",
            "uri" : "Marble_SlabWhite_512_normal.png"
        },
        {
            "mimeType" : "image/png",
            "name" : "Marble_SlabWhite_512_albedo",
            "uri" : "Marble_SlabWhite_512_albedo.png"
        },
        {
            "mimeType" : "image/png",
            "name" : "Marble_SlabWhite_512_metallic-Marble_SlabWhite_512_roughness",
            "uri" : "Marble_SlabWhite_512_metallic-Marble_SlabWhite_512_roughness.png"
        },
        {
            "mimeType" : "image/jpeg",
            "name" : "wood_seamless2",
            "uri" : "wood_seamless2.jpg"
        }
    ],
    "accessors" : [
        {
            "bufferView" : 0,
            "componentType" : 5126,
            "count" : 768,
            "max" : [
                0.9960793256759644,
                1,
                0.9960793256759644
            ],
            "min" : [
                -0.9960793256759644,
                -1,
                -0.9960793256759644
            ],
            "type" : "VEC3"
        },
        {
            "bufferView" : 1,
            "componentType" : 5126,
            "count" : 768,
            "type" : "VEC3"
        },
        {
            "bufferView" : 2,
            "componentType" : 5126,
            "count" : 768,
            "type" : "VEC2"
        },
        {
            "bufferView" : 3,
            "componentType" : 5123,
            "count" : 1140,
            "type" : "SCALAR"
        },
        {
            "bufferView" : 4,
            "componentType" : 5126,
            "count" : 5109,
            "max" : [
                6.759389877319336,
                0.5275179743766785,
                -0.4744899868965149
            ],
            "min" : [
                5.018459796905518,
                -5.546130180358887,
                -4.899109840393066
            ],
            "type" : "VEC3"
        },
        {
            "bufferView" : 5,
            "componentType" : 5126,
            "count" : 5109,
            "type" : "VEC3"
        },
        {
            "bufferView" : 6,
            "componentType" : 5126,
            "count" : 5109,
            "type" : "VEC2"
        },
        {
            "bufferView" : 7,
            "componentType" : 5123,
            "count" : 11940,
            "type" : "SCALAR"
        },
        {
            "bufferView" : 8,
            "componentType" : 5126,
            "count" : 2080,
            "max" : [
                1,
                1,
                1
            ],
            "min" : [
                -1.1004433631896973,
                -1,
                -1
            ],
            "type" : "VEC3"
        },
        {
            "bufferView" : 9,
            "componentType" : 5126,
            "count" : 2080,
            "type" : "VEC3"
        },
        {
            "bufferView" : 10,
            "componentType" : 5126,
            "count" : 2080,
            "type" : "VEC2"
        },
        {
            "bufferView" : 11,
            "componentType" : 5123,
            "count" : 3666,
            "type" : "SCALAR"
        },
        {
            "bufferView" : 12,
            "componentType" : 5126,
            "count" : 384,
            "max" : [
                -0.8698474764823914,
                0.08490246534347534,
                0.6350932717323303
            ],
            "min" : [
                -1.1064372062683105,
                -0.725594699382782,
                -0.6350932717323303
            ],
            "type" : "VEC3"
        },
        {
            "bufferView" : 13,
            "componentType" : 5126,
            "count" : 384,
            "type" : "VEC3"
        },
        {
            "bufferView" : 14,
            "componentType" : 5126,
            "count" : 384,
            "type" : "VEC2"
        },
        {
            "bufferView" : 15,
            "componentType" : 5123,
            "count" : 576,
            "type" : "SCALAR"
        },
        {
            "bufferView" : 16,
            "componentType" : 5126,
            "count" : 160,
            "max" : [
                -0.9297541975975037,
                0.6920511722564697,
                0.18102632462978363
            ],
            "min" : [
                -0.9737269282341003,
                0.4610278606414795,
                -0.1810263842344284
            ],
            "type" : "VEC3"
        },
        {
            "bufferView" : 17,
            "componentType" : 5126,
            "count" : 160,
            "type" : "VEC3"
        },
        {
            "bufferView" : 18,
            "componentType" : 5126,
            "count" : 160,
            "type" : "VEC2"
        },
        {
            "bufferView" : 19,
            "componentType" : 5123,
            "count" : 282,
            "type" : "SCALAR"
        },
        {
            "bufferView" : 20,
            "componentType" : 5126,
            "count" : 2076,
            "max" : [
                1,
                1,
                1
            ],
            "min" : [
                -1.1004433631896973,
                -1,
                -1
            ],
            "type" : "VEC3"
        },
        {
            "bufferView" : 21,
            "componentType" : 5126,
            "count" : 2076,
            "type" : "VEC3"
        },
        {
            "bufferView" : 22,
            "componentType" : 5126,
            "count" : 2076,
            "type" : "VEC2"
        },
        {
            "bufferView" : 23,
            "componentType" : 5123,
            "count" : 3660,
            "type" : "SCALAR"
        },
        {
            "bufferView" : 24,
            "componentType" : 5126,
            "count" : 164,
            "max" : [
                -0.9297541975975037,
                0.6920511722564697,
                0.18102632462978363
            ],
            "min" : [
                -1.0924911499023438,
                -0.9627763032913208,
                -0.1810263842344284
            ],
            "type" : "VEC3"
        },
        {
            "bufferView" : 25,
            "componentType" : 5126,
            "count" : 164,
            "type" : "VEC3"
        },
        {
            "bufferView" : 26,
            "componentType" : 5126,
            "count" : 164,
            "type" : "VEC2"
        },
        {
            "bufferView" : 27,
            "componentType" : 5123,
            "count" : 288,
            "type" : "SCALAR"
        },
        {
            "bufferView" : 28,
            "componentType" : 5126,
            "count" : 384,
            "max" : [
                -0.8698474764823914,
                0.08490246534347534,
                0.6350932717323303
            ],
            "min" : [
                -1.1064372062683105,
                -0.725594699382782,
                -0.6350932717323303
            ],
            "type" : "VEC3"
        },
        {
            "bufferView" : 29,
            "componentType" : 5126,
            "count" : 384,
            "type" : "VEC3"
        },
        {
            "bufferView" : 30,
            "componentType" : 5126,
            "count" : 384,
            "type" : "VEC2"
        }
    ],
    "bufferViews" : [
        {
            "buffer" : 0,
            "byteLength" : 9216,
            "byteOffset" : 0
        },
        {
            "buffer" : 0,
            "byteLength" : 9216,
            "byteOffset" : 9216
        },
        {
            "buffer" : 0,
            "byteLength" : 6144,
            "byteOffset" : 18432
        },
        {
            "buffer" : 0,
            "byteLength" : 2280,
            "byteOffset" : 24576
        },
        {
            "buffer" : 0,
            "byteLength" : 61308,
            "byteOffset" : 26856
        },
        {
            "buffer" : 0,
            "byteLength" : 61308,
            "byteOffset" : 88164
        },
        {
            "buffer" : 0,
            "byteLength" : 40872,
            "byteOffset" : 149472
        },
        {
            "buffer" : 0,
            "byteLength" : 23880,
            "byteOffset" : 190344
        },
        {
            "buffer" : 0,
            "byteLength" : 24960,
            "byteOffset" : 214224
        },
        {
            "buffer" : 0,
            "byteLength" : 24960,
            "byteOffset" : 239184
        },
        {
            "buffer" : 0,
            "byteLength" : 16640,
            "byteOffset" : 264144
        },
        {
            "buffer" : 0,
            "byteLength" : 7332,
            "byteOffset" : 280784
        },
        {
            "buffer" : 0,
            "byteLength" : 4608,
            "byteOffset" : 288116
        },
        {
            "buffer" : 0,
            "byteLength" : 4608,
            "byteOffset" : 292724
        },
        {
            "buffer" : 0,
            "byteLength" : 3072,
            "byteOffset" : 297332
        },
        {
            "buffer" : 0,
            "byteLength" : 1152,
            "byteOffset" : 300404
        },
        {
            "buffer" : 0,
            "byteLength" : 1920,
            "byteOffset" : 301556
        },
        {
            "buffer" : 0,
            "byteLength" : 1920,
            "byteOffset" : 303476
        },
        {
            "buffer" : 0,
            "byteLength" : 1280,
            "byteOffset" : 305396
        },
        {
            "buffer" : 0,
            "byteLength" : 564,
            "byteOffset" : 306676
        },
        {
            "buffer" : 0,
            "byteLength" : 24912,
            "byteOffset" : 307240
        },
        {
            "buffer" : 0,
            "byteLength" : 24912,
            "byteOffset" : 332152
        },
        {
            "buffer" : 0,
            "byteLength" : 16608,
            "byteOffset" : 357064
        },
        {
            "buffer" : 0,
            "byteLength" : 7320,
            "byteOffset" : 373672
        },
        {
            "buffer" : 0,
            "byteLength" : 1968,
            "byteOffset" : 380992
        },
        {
            "buffer" : 0,
            "byteLength" : 1968,
            "byteOffset" : 382960
        },
        {
            "buffer" : 0,
            "byteLength" : 1312,
            "byteOffset" : 384928
        },
        {
            "buffer" : 0,
            "byteLength" : 576,
            "byteOffset" : 386240
        },
        {
            "buffer" : 0,
            "byteLength" : 4608,
            "byteOffset" : 386816
        },
        {
            "buffer" : 0,
            "byteLength" : 4608,
            "byteOffset" : 391424
        },
        {
            "buffer" : 0,
            "byteLength" : 3072,
            "byteOffset" : 396032
        }
    ],
    "buffers" : [
        {
            "byteLength" : 399104,
            "uri" : "speakers.bin"
        }
    ]
}
