{
    "asset" : {
        "generator" : "Khronos glTF Blender I/O v1.1.46",
        "version" : "2.0"
    },
    "scene" : 0,
    "scenes" : [
        {
            "extras" : {
                "janus_apply_scale" : 0,
                "janus_apply_pos" : 0,
                "janus_apply_rot" : 0,
                "janus_ipfs" : 0,
                "janus_gateway" : 0,
                "janus_ipns" : 0,
                "janus_room_visible" : 0,
                "janus_room_shader_active" : 0,
                "janus_unpack" : 1
            },
            "name" : "Scene",
            "nodes" : [
                0,
                1,
                2,
                3
            ]
        }
    ],
    "nodes" : [
        {
            "mesh" : 0,
            "name" : "Plane.001",
            "translation" : [
                5.243492603302002,
                3.034583330154419,
                -1.232005000114441
            ]
        },
        {
            "mesh" : 1,
            "name" : "Modern Staircase",
            "rotation" : [
                0,
                0.7071068286895752,
                -0.7071067690849304,
                5.338507946817117e-08
            ],
            "scale" : [
                0.9038167595863342,
                0.9038167595863342,
                0.9038167595863342
            ],
            "translation" : [
                6.582956314086914,
                0.13842497766017914,
                2.8132190704345703
            ]
        },
        {
            "mesh" : 2,
            "name" : "home_rail_front.002",
            "rotation" : [
                0.5,
                -0.5,
                0.4999999701976776,
                0.5000000596046448
            ],
            "scale" : [
                0.541970431804657,
                0.5476034879684448,
                0.5476034879684448
            ],
            "translation" : [
                5.163565158843994,
                3.2662405967712402,
                -1.2763957977294922
            ]
        },
        {
            "mesh" : 3,
            "name" : "home_rail_front.001",
            "rotation" : [
                0.7071067690849304,
                0,
                0,
                0.7071068286895752
            ],
            "scale" : [
                0.541970431804657,
                0.5476034879684448,
                0.5476034879684448
            ],
            "translation" : [
                5.660930633544922,
                2.028907299041748,
                2.8220174312591553
            ]
        }
    ],
    "materials" : [
        {
            "doubleSided" : true,
            "emissiveFactor" : [
                0,
                0,
                0
            ],
            "extras" : {},
            "name" : "Wood Table ",
            "pbrMetallicRoughness" : {
                "baseColorTexture" : {
                    "index" : 0,
                    "texCoord" : 0
                },
                "metallicFactor" : 0,
                "roughnessFactor" : 0.20000000298023224
            }
        },
        {
            "alphaMode" : "BLEND",
            "doubleSided" : true,
            "emissiveFactor" : [
                0,
                0,
                0
            ],
            "name" : "gltf glass",
            "pbrMetallicRoughness" : {
                "baseColorFactor" : [
                    0.5588359832763672,
                    0.7771146893501282,
                    0.8000000715255737,
                    0.30000001192092896
                ],
                "metallicFactor" : 1,
                "roughnessFactor" : 0.2181818187236786
            }
        }
    ],
    "meshes" : [
        {
            "name" : "Plane.007",
            "primitives" : [
                {
                    "attributes" : {
                        "POSITION" : 0,
                        "NORMAL" : 1,
                        "TEXCOORD_0" : 2
                    },
                    "indices" : 3,
                    "material" : 0
                }
            ]
        },
        {
            "name" : "Modern Staircase",
            "primitives" : [
                {
                    "attributes" : {
                        "POSITION" : 4,
                        "NORMAL" : 5,
                        "TEXCOORD_0" : 6
                    },
                    "indices" : 7,
                    "material" : 0
                }
            ]
        },
        {
            "name" : "Plane.006",
            "primitives" : [
                {
                    "attributes" : {
                        "POSITION" : 8,
                        "NORMAL" : 9,
                        "TEXCOORD_0" : 10
                    },
                    "indices" : 11,
                    "material" : 1
                }
            ]
        },
        {
            "name" : "Plane.005",
            "primitives" : [
                {
                    "attributes" : {
                        "POSITION" : 12,
                        "NORMAL" : 13,
                        "TEXCOORD_0" : 14
                    },
                    "indices" : 3,
                    "material" : 1
                }
            ]
        }
    ],
    "textures" : [
        {
            "source" : 0
        }
    ],
    "images" : [
        {
            "mimeType" : "image/jpeg",
            "name" : "TexturesCom_WoodFine0037_1_seamless_S",
            "uri" : "TexturesCom_WoodFine0037_1_seamless_S.jpg"
        }
    ],
    "accessors" : [
        {
            "bufferView" : 0,
            "componentType" : 5126,
            "count" : 24,
            "max" : [
                -0.08156478404998779,
                0,
                1
            ],
            "min" : [
                -1,
                -0.04999999701976776,
                -1
            ],
            "type" : "VEC3"
        },
        {
            "bufferView" : 1,
            "componentType" : 5126,
            "count" : 24,
            "type" : "VEC3"
        },
        {
            "bufferView" : 2,
            "componentType" : 5126,
            "count" : 24,
            "type" : "VEC2"
        },
        {
            "bufferView" : 3,
            "componentType" : 5123,
            "count" : 36,
            "type" : "SCALAR"
        },
        {
            "bufferView" : 4,
            "componentType" : 5126,
            "count" : 2014,
            "max" : [
                2.573652505874634,
                4.165895938873291,
                0.17999900877475739
            ],
            "min" : [
                -0.0044893063604831696,
                9.864103276413516e-07,
                -3.0861899852752686
            ],
            "type" : "VEC3"
        },
        {
            "bufferView" : 5,
            "componentType" : 5126,
            "count" : 2014,
            "type" : "VEC3"
        },
        {
            "bufferView" : 6,
            "componentType" : 5126,
            "count" : 2014,
            "type" : "VEC2"
        },
        {
            "bufferView" : 7,
            "componentType" : 5123,
            "count" : 3540,
            "type" : "SCALAR"
        },
        {
            "bufferView" : 8,
            "componentType" : 5126,
            "count" : 24,
            "max" : [
                1.9230692386627197,
                1.5841429501506354e-08,
                0.5135370492935181
            ],
            "min" : [
                -1.7287275791168213,
                -0.019999997690320015,
                -0.5135370492935181
            ],
            "type" : "VEC3"
        },
        {
            "bufferView" : 9,
            "componentType" : 5126,
            "count" : 24,
            "type" : "VEC3"
        },
        {
            "bufferView" : 10,
            "componentType" : 5126,
            "count" : 24,
            "type" : "VEC2"
        },
        {
            "bufferView" : 11,
            "componentType" : 5123,
            "count" : 36,
            "type" : "SCALAR"
        },
        {
            "bufferView" : 12,
            "componentType" : 5126,
            "count" : 24,
            "max" : [
                1.7110621929168701,
                0,
                0.5135370492935181
            ],
            "min" : [
                -1.7479175329208374,
                -0.019999999552965164,
                -0.5135370492935181
            ],
            "type" : "VEC3"
        },
        {
            "bufferView" : 13,
            "componentType" : 5126,
            "count" : 24,
            "type" : "VEC3"
        },
        {
            "bufferView" : 14,
            "componentType" : 5126,
            "count" : 24,
            "type" : "VEC2"
        }
    ],
    "bufferViews" : [
        {
            "buffer" : 0,
            "byteLength" : 288,
            "byteOffset" : 0
        },
        {
            "buffer" : 0,
            "byteLength" : 288,
            "byteOffset" : 288
        },
        {
            "buffer" : 0,
            "byteLength" : 192,
            "byteOffset" : 576
        },
        {
            "buffer" : 0,
            "byteLength" : 72,
            "byteOffset" : 768
        },
        {
            "buffer" : 0,
            "byteLength" : 24168,
            "byteOffset" : 840
        },
        {
            "buffer" : 0,
            "byteLength" : 24168,
            "byteOffset" : 25008
        },
        {
            "buffer" : 0,
            "byteLength" : 16112,
            "byteOffset" : 49176
        },
        {
            "buffer" : 0,
            "byteLength" : 7080,
            "byteOffset" : 65288
        },
        {
            "buffer" : 0,
            "byteLength" : 288,
            "byteOffset" : 72368
        },
        {
            "buffer" : 0,
            "byteLength" : 288,
            "byteOffset" : 72656
        },
        {
            "buffer" : 0,
            "byteLength" : 192,
            "byteOffset" : 72944
        },
        {
            "buffer" : 0,
            "byteLength" : 72,
            "byteOffset" : 73136
        },
        {
            "buffer" : 0,
            "byteLength" : 288,
            "byteOffset" : 73208
        },
        {
            "buffer" : 0,
            "byteLength" : 288,
            "byteOffset" : 73496
        },
        {
            "buffer" : 0,
            "byteLength" : 192,
            "byteOffset" : 73784
        }
    ],
    "buffers" : [
        {
            "byteLength" : 73976,
            "uri" : "stairs.bin"
        }
    ]
}
